<?xml version="1.0" encoding="UTF-8"?>
<svg xmlns="http://www.w3.org/2000/svg" viewBox="0 0 1225.25 249.25" role="img" aria-labelledby="title desc">
  <title id="title">sealingAI wordmark</title>
  <desc id="desc">Primary sealingAI wordmark in button blue on a transparent background.</desc>
  <g fill="#002A5B">
    <path transform="translate(-47.0 -84.75)" d="m 102.25,281.25 q -15.5,0 -29.75,-5.25 -14.25,-5.25 -23,-14.75 -2.5,-3 -2.5,-5.75 0,-4.25 4,-7.5 3,-2.25 6.25,-2.25 4.25,0 7.25,3.5 6,7 15.75,10.75 10,3.75 22,3.75 17.5,0 26.25,-6 8.75,-6 9,-15.75 0,-9 -8.75,-15 -8.75,-6 -27.75,-9 -24.5,-4 -36.75,-13.75 -12,-10 -12,-24 0,-18.25 14,-28.25 14.25,-10 35.5,-10 16.5,0 28.75,5.75 12.25,5.5 19.75,15.5 2,3.25 2,5.75 0,4.25 -4,6.75 -1.75,1.25 -4.75,1.25 -5.25,0 -8.75,-3.75 -12.25,-14 -33.5,-14 -13.75,0 -22,5.75 -8.25,5.5 -8.25,14 0,9 7.75,14.5 7.75,5.25 27.5,8.5 26.75,4.5 38.25,14.75 11.5,10 11.5,25 0,11.5 -7,20.5 -6.75,9 -19,14 -12.25,5 -27.75,5 z M 251.49989,142 q 18.5,0 32.75,8.75 14.25,8.5 22,23.75 8,15.25 8,34.75 0,4 -2.5,6.5 -2.5,2.25 -6.5,2.25 h -101 q 2,20.5 16,33.25 14,12.75 35,12.75 9,0 18,-3 9.25,-3.25 14.75,-8 3.25,-2.5 6.75,-2.5 2.75,0 5.5,2 3.25,3 3.25,6.75 0,3.25 -2.75,5.75 -8.25,7 -21,11.75 -12.75,4.5 -24.5,4.5 -20,0 -35.75,-8.75 -15.75,-9 -24.75,-24.75 -8.75,-16 -8.75,-36 0,-20.25 8.25,-36 8.5,-16 23.25,-24.75 15,-9 34,-9 z m 0,17.25 q -19,0 -31.5,11.75 -12.5,11.75 -15.25,31 h 91.5 q -2,-19.25 -14,-31 -12,-11.75 -30.75,-11.75 z M 407.99988,142 q 19.5,0 35.25,9.25 16,9 25,25 9.25,16 9.25,35.5 v 58.75 q 0,4 -2.75,6.75 -2.75,2.75 -7,2.75 -4.25,0 -7,-2.5 -2.75,-2.75 -2.75,-7 v -15 q -8.75,12 -22.25,19 -13.5,6.75 -29.75,6.75 -19,0 -34.5,-9 -15.25,-9.25 -24.25,-25 -8.75,-16 -8.75,-35.5 0,-19.5 9,-35.5 9.25,-16 25,-25 16,-9.25 35.5,-9.25 z m 0,121.75 q 14.25,0 25.75,-6.75 11.5,-6.75 18,-18.5 6.75,-12 6.75,-26.75 0,-14.75 -6.75,-26.5 -6.5,-12 -18,-18.75 -11.5,-7 -25.75,-7 -14.25,0 -26,7 -11.5,6.75 -18.25,18.75 -6.5,11.75 -6.5,26.5 0,14.75 6.5,26.75 6.75,11.75 18.25,18.5 11.75,6.75 26,6.75 z m 140.5,16.25 q -15.25,0 -25,-12 -9.5,-12.25 -9.5,-31.25 V 94.25 q 0,-4.25 2.75,-6.75 2.75,-2.75 6.75,-2.75 4.25,0 6.75,2.75 2.75,2.5 2.75,6.75 v 142.5 q 0,10.75 4.25,17.5 4.5,6.75 11.25,6.75 h 6.25 q 3.75,0 6,2.75 2.25,2.5 2.25,6.75 0,4.25 -3.25,7 -3,2.5 -8,2.5 z m 58.74988,0 q -4.25,0 -7,-2.75 -2.75,-2.75 -2.75,-7 V 153 q 0,-4.25 2.75,-7 2.75,-2.75 7,-2.75 4.25,0 6.75,2.75 2.75,2.75 2.75,7 v 117.25 q 0,4.25 -2.75,7 -2.5,2.75 -6.75,2.75 z m -0.25,-162.75 q -5.75,0 -9.75,-4 -3.75,-4 -3.75,-9.75 0,-6 4,-9.75 4,-3.75 9.75,-3.75 5.5,0 9.5,3.75 4,3.75 4,9.75 0,5.75 -4,9.75 -4,4 -9.75,4 z m 127.49987,24.5 q 17.75,0 31.75,7.5 14.25,7.5 22.25,22 8,14.25 8,34.25 v 65 q 0,4 -2.75,6.75 -2.75,2.75 -6.75,2.75 -4.25,0 -7,-2.75 -2.75,-2.75 -2.75,-6.75 v -65 q 0,-22.25 -12.5,-33.75 -12.25,-11.75 -32.25,-11.75 -12.25,0 -22.25,4.75 -9.75,4.75 -15.5,13.25 -5.75,8.25 -5.75,18.5 v 74 q 0,4.25 -2.75,7 -2.5,2.5 -6.75,2.5 -4.25,0 -7,-2.5 -2.75,-2.75 -2.75,-7 V 153 q 0,-4.25 2.75,-7 2.75,-2.75 7,-2.75 4.25,0 6.75,2.75 2.75,2.75 2.75,7 v 8.5 q 8.25,-9.25 20,-14.5 11.75,-5.25 25.5,-5.25 z M 905.24969,142 q 20,0 35.75,9 15.75,8.75 24.75,24.75 9,15.75 9,36 v 51 q 0,20 -9,36.25 -8.75,16.25 -24.5,25.5 -15.75,9.5 -35.5,9.5 -19.25,0 -34.25,-7.25 -15,-7.25 -25.25,-20.25 -2.25,-2.5 -2.25,-5.75 0,-3.75 3.5,-6.5 2.5,-1.75 5.5,-1.75 2.25,0 4.5,1 2.25,1.25 3.5,3 7.5,9.5 19,14.75 11.5,5.25 26,5.25 14,0 25.25,-7 11.5,-6.75 18,-19.25 6.5,-12.25 6.5,-28.25 v -11.25 q -7.5,14.25 -21.25,22.5 -13.75,8 -31.25,8 -19.5,0 -35,-8.75 -15.25,-9 -24,-24.75 -8.5,-16 -8.5,-36 0,-20.25 9,-36 9,-16 24.75,-24.75 16,-9 35.75,-9 z m 0,121.75 q 14.5,0 26,-6.5 11.5,-6.75 18,-18.5 6.5,-12 6.5,-27 0,-15 -6.5,-26.75 -6.5,-12 -18,-18.75 -11.5,-6.75 -26,-6.75 -14.75,0 -26.25,6.75 -11.5,6.75 -18,18.75 -6.5,11.75 -6.5,26.75 0,15 6.5,27 6.5,11.75 18,18.5 11.5,6.5 26.25,6.5 z"/>
    <path transform="translate(-277.0 -84.75)" d="m 1451.5,266.25 q 1,1.75 1,4 0,4 -3,7 -2.75,2.75 -6.75,2.75 -6.5,0 -9.25,-6 l -16.75,-40.5 H 1320 l -16.75,40.5 q -2,6 -9,6 -4.25,0 -7,-2.75 -2.5,-3 -2.5,-7 0,-2.5 0.75,-4.25 L 1359,91.5 q 2.75,-6.75 9.5,-6.75 6.75,0 9.25,6.75 z M 1327,216.75 h 83 L 1368.5,116.5 Z M 1492.4998,280 q -4,0 -7,-2.75 -2.75,-3 -2.75,-7 V 94.5 q 0,-4.25 2.75,-7 3,-2.75 7,-2.75 4.25,0 7,2.75 2.75,2.75 2.75,7 v 175.75 q 0,4 -2.75,7 -2.75,2.75 -7,2.75 z"/>
  </g>
</svg>
