<?xml version="1.0" standalone="no"?>
<!DOCTYPE svg PUBLIC "-//W3C//DTD SVG 20010904//EN"
 "http://www.w3.org/TR/2001/REC-SVG-20010904/DTD/svg10.dtd">
<svg version="1.0" xmlns="http://www.w3.org/2000/svg"
 width="1024.000000pt" height="1024.000000pt" viewBox="0 0 1024.000000 1024.000000"
 preserveAspectRatio="xMidYMid meet">

<g transform="translate(0.000000,1024.000000) scale(0.100000,-0.100000)"
fill="#000000" stroke="none">
<path d="M3549 8770 c-311 -39 -551 -196 -673 -437 -85 -169 -99 -443 -32
-634 84 -241 267 -389 736 -594 310 -136 354 -156 445 -208 124 -70 222 -168
255 -257 33 -87 34 -219 3 -298 -44 -110 -126 -187 -245 -230 -98 -35 -259
-37 -392 -4 -106 26 -253 94 -340 156 -168 120 -327 340 -421 584 l-28 72 -54
0 -53 0 0 -480 0 -480 38 0 c36 0 41 3 57 39 38 85 111 120 206 100 30 -6 133
-41 229 -76 291 -108 459 -141 664 -130 109 6 244 34 270 56 21 17 62 107 268
591 105 245 205 480 224 524 24 56 31 83 24 96 -16 30 -135 135 -206 182 -131
87 -247 147 -477 249 -404 178 -520 242 -616 343 -68 73 -101 145 -108 240
-10 131 48 262 145 330 106 73 263 100 413 72 172 -32 293 -101 430 -243 104
-108 188 -234 259 -387 l55 -117 50 3 50 3 3 438 2 437 -40 0 c-35 0 -42 -4
-65 -40 -58 -92 -113 -92 -384 -1 -113 39 -242 77 -286 86 -93 19 -311 27
-406 15z"/>
<path d="M5510 8755 c-20 -53 -252 -592 -923 -2150 -395 -917 -754 -1757 -886
-2070 l-50 -120 47 -7 c32 -5 51 -3 59 5 6 7 133 296 281 642 148 347 404 941
567 1320 163 380 335 778 380 885 46 107 192 449 325 760 133 311 259 606 280
656 l38 92 -36 6 c-61 10 -72 7 -82 -19z"/>
<path d="M6570 7367 l0 -64 66 -12 c122 -22 181 -69 209 -165 13 -46 15 -178
13 -1037 -3 -939 -4 -986 -22 -1019 -42 -80 -105 -120 -186 -120 -64 0 -115
21 -163 68 -49 47 -76 100 -182 363 -134 329 -631 1542 -775 1889 -28 69 -54
131 -57 138 -4 8 -31 12 -88 12 l-83 0 -40 -97 c-42 -100 -227 -536 -705
-1653 -244 -572 -275 -639 -313 -676 -30 -30 -54 -45 -85 -51 l-44 -9 -3 -62
-3 -62 371 0 371 0 -3 63 -3 62 -76 7 c-85 8 -171 41 -208 81 -29 32 -38 99
-22 164 7 26 44 128 83 226 l71 177 461 0 462 0 76 -198 c115 -297 119 -332
53 -391 -34 -30 -117 -61 -161 -61 -47 0 -54 -9 -54 -71 l0 -59 1115 0 1115 0
0 65 0 65 -34 0 c-19 0 -63 9 -98 20 -85 26 -133 73 -148 144 -8 36 -10 342
-8 1036 3 939 4 987 22 1020 41 78 93 112 200 130 l66 12 0 64 0 64 -595 0
-595 0 0 -63z m-1117 -1362 c47 -121 89 -228 93 -237 6 -17 -17 -18 -385 -18
-247 0 -391 4 -391 10 0 5 57 143 126 307 69 164 155 368 191 453 36 85 70
164 75 174 11 21 31 -27 291 -689z"/>
<path d="M5541 4142 l-175 -47 0 -35 c0 -33 2 -35 44 -42 24 -4 53 -17 65 -28
20 -20 20 -32 23 -548 3 -607 6 -585 -80 -612 -46 -14 -48 -17 -48 -52 l0 -38
255 0 255 0 0 38 c0 36 -2 38 -45 50 -84 22 -79 -20 -85 711 -4 564 -7 646
-20 648 -8 1 -93 -19 -189 -45z"/>
<path d="M2460 4100 c-72 -15 -164 -66 -210 -116 -140 -152 -129 -393 24 -531
57 -51 120 -85 268 -144 201 -80 275 -134 298 -219 23 -86 -20 -184 -100 -225
-47 -24 -135 -35 -197 -24 -144 27 -252 124 -313 282 -27 69 -30 72 -63 75
l-35 3 5 -83 c2 -46 8 -148 11 -228 l7 -145 26 -3 c17 -2 37 6 57 22 16 15 36
26 42 26 7 0 56 -14 109 -32 87 -29 108 -32 221 -32 130 -1 181 10 274 56 142
72 232 251 206 412 -25 157 -114 235 -413 365 -78 34 -164 78 -190 97 -81 59
-110 130 -88 214 24 89 103 137 214 128 123 -10 234 -94 301 -226 36 -71 37
-72 76 -72 22 0 40 2 40 4 0 34 -32 371 -36 378 -9 14 -34 9 -65 -14 -32 -24
-49 -22 -189 17 -68 20 -219 27 -280 15z"/>
<path d="M6590 4086 c0 -1 -36 -97 -81 -212 -44 -115 -141 -366 -215 -558 -74
-192 -146 -371 -160 -398 -25 -50 -67 -84 -116 -95 -25 -5 -28 -10 -28 -44 l0
-39 223 2 222 3 3 35 3 35 -61 12 c-71 13 -100 35 -100 73 0 25 67 217 91 262
9 17 26 18 235 16 l226 -3 44 -115 c60 -156 62 -173 31 -204 -15 -15 -42 -27
-71 -31 -46 -7 -46 -8 -46 -46 l0 -39 290 0 290 0 0 39 c0 36 -3 40 -30 46
-37 8 -86 48 -104 84 -8 14 -116 280 -241 591 -125 311 -229 571 -232 578 -4
8 -31 12 -89 12 -46 0 -84 -2 -84 -4z m104 -545 c47 -129 86 -238 86 -243 0
-10 -331 -10 -348 0 -13 9 -8 27 113 360 27 73 52 129 56 125 4 -5 46 -113 93
-242z"/>
<path d="M7460 4055 c0 -33 2 -35 41 -41 53 -9 100 -41 121 -84 16 -32 18 -78
18 -515 0 -437 -2 -483 -18 -514 -23 -45 -57 -69 -112 -79 -43 -7 -45 -9 -48
-45 l-3 -37 305 0 306 0 0 39 c0 37 -1 39 -40 44 -48 6 -83 27 -107 64 -16 25
-18 68 -21 493 -2 320 0 481 8 517 14 64 60 110 120 119 37 6 40 9 40 40 l0
34 -305 0 -305 0 0 -35z"/>
<path d="M3615 3676 c-27 -7 -74 -25 -103 -40 -180 -92 -273 -293 -242 -525
24 -189 129 -319 298 -371 113 -35 269 -22 371 29 50 26 144 112 183 168 32
47 32 48 -8 72 -25 16 -27 15 -67 -23 -22 -21 -70 -53 -106 -69 -118 -56 -247
-39 -334 42 -52 47 -97 161 -97 243 l0 38 308 2 307 3 3 54 c8 144 -65 283
-180 342 -94 48 -225 62 -333 35z m175 -115 c48 -25 90 -106 90 -172 l0 -49
-185 0 -186 0 6 38 c12 65 54 141 98 173 49 35 122 40 177 10z"/>
<path d="M4615 3680 c-100 -21 -184 -67 -243 -134 -38 -44 -54 -96 -50 -161 3
-49 3 -50 39 -53 20 -2 60 5 89 15 52 18 54 21 67 68 25 102 64 135 158 135
111 0 171 -62 182 -188 l6 -68 -144 -37 c-299 -77 -428 -175 -429 -326 0 -135
93 -211 261 -211 98 0 182 29 257 90 57 46 62 48 62 26 0 -30 39 -87 70 -104
17 -9 52 -12 106 -9 71 3 89 8 150 41 38 21 70 39 72 40 1 2 -3 17 -9 35 -9
25 -15 30 -28 25 -9 -4 -36 -8 -61 -8 -68 -1 -70 6 -70 299 0 269 -9 336 -52
399 -39 58 -104 99 -193 122 -55 15 -177 17 -240 4z m244 -572 c0 -62 -6 -108
-17 -137 -43 -111 -202 -153 -274 -72 -22 25 -28 41 -28 79 0 98 63 155 225
203 99 29 95 33 94 -73z"/>
</g>
</svg>
